# xmcd
#
# Track frame offsets:
#  150
#  8383
#  28879
#  54830
#  78758
#  95566
#  126673
#  136418
#
# Disc length: 2127 seconds
#
# Revision: 0
# Processed by: cddbd v1.5.2PL0 Copyright (c) Steve Scherf et al.
# Submitted via: Collectorz.com_Music_Collector 6.11
#
DISCID=5d084d08
DTITLE=Calexico - Tilburg, 27 April 2003 [CD2)
DYEAR=1900
DGENRE=
TTITLE0=Neon Golden
TTITLE1=Black Heart
TTITLE2=Alone Again Or
TTITLE3=Convict Pool
TTITLE4=Canción Del Mariach
TTITLE5=Crystal Frontier
TTITLE6=Attack El Robot! Attack!
TTITLE7=Love Will Tear Us Apart
EXTD=
EXTT0=
EXTT1=
EXTT2=
EXTT3=
EXTT4=
EXTT5=
EXTT6=
EXTT7=
PLAYORDER=
